<svg xmlns="http://www.w3.org/2000/svg" viewBox="0 0 44.34 74.88"><defs><style>.cls-1,.cls-4{fill:#fff021;}.cls-1,.cls-2,.cls-3,.cls-4{stroke:#000;stroke-miterlimit:10;}.cls-1,.cls-2{stroke-width:2px;}.cls-2{fill:none;}</style></defs><g id="Layer_2" data-name="Layer 2"><g id="Layer_1-2" data-name="Layer 1"><path class="cls-1" d="M36.35,37.88a21.17,21.17,0,1,0-27.85.45l.15,12.23A14.39,14.39,0,0,1,8,55.07c-.7,2.24-1.52,6-.4,9,0,0,4.25,8.5,6.37,8.7a3,3,0,0,0,2.94-1.21s1.51,3,3.74,2.22,2-4.55,1-6.37-3.44-5.06-1.72-8.19,2.63-3.54,2.83-5.06A38,38,0,0,0,25,58.47c.76,1,.2,6.07-1.22,8s-.7,4.4.41,4.8,3.69-.7,3.69-.7.45,2.32,2.12,2.37a4.82,4.82,0,0,0,4.7-3.08c.76-2.23,3.8-6.73,2.58-10.77S36.35,37.88,36.35,37.88Z"/><path class="cls-2" d="M16.24,43.81s.33,8-.54,9.77-5,8,1.18,17.94"/><line class="cls-2" x1="22.78" y1="43.81" x2="22.78" y2="54.12"/><path class="cls-2" d="M29.11,43.81s-.4,7.35,0,8.22,3.37,6.27,3,8S27.9,70.56,27.9,70.56"/><path class="cls-3" d="M8.57,43.81H36.33l0-5.93a20.81,20.81,0,0,0,7-15.91A21.43,21.43,0,0,0,22.17,1,21.16,21.16,0,0,0,1,22.17C1,33.36,8.5,38.33,8.5,38.33Z"/><path class="cls-4" d="M9.83,29.25H22.17S21.9,36.31,16,36.31,9.83,29.25,9.83,29.25Z"/><path class="cls-4" d="M23.1,29.25H35.43s-.27,7.06-6.16,7.06S23.1,29.25,23.1,29.25Z"/></g></g></svg>